<svg version="1.1" xmlns="http://www.w3.org/2000/svg" viewBox="0 0 2442.1204213643045 1193.668438740342" width="2442.1204213643045" height="1193.668438740342" filter="invert(93%) hue-rotate(180deg)">
  <!-- svg-source:excalidraw -->
  
  <defs>
    <style class="style-fonts">
      @font-face {
        font-family: "Virgil";
        src: url("https://excalidraw.com/Virgil.woff2");
      }
      @font-face {
        font-family: "Cascadia";
        src: url("https://excalidraw.com/Cascadia.woff2");
      }
    </style>
    
  </defs>
  <rect x="0" y="0" width="2442.1204213643045" height="1193.668438740342" fill="#ffffff"></rect><g stroke-linecap="round" transform="translate(1855.1204213643045 159.63647390458868) rotate(0 136 55.5)"><path d="M27.75 0 M27.75 0 C96.52 -0.28, 167.01 -0.14, 244.25 0 M27.75 0 C105.28 -0.41, 181.03 -1.3, 244.25 0 M244.25 0 C263.53 -0.81, 270.83 8.69, 272 27.75 M244.25 0 C261.31 -0.39, 273.9 8.21, 272 27.75 M272 27.75 C271.78 46.8, 271.06 64.06, 272 83.25 M272 27.75 C273.02 41.65, 271.19 53.29, 272 83.25 M272 83.25 C273.89 103.38, 261.46 111.19, 244.25 111 M272 83.25 C272.81 100.74, 263.38 110.61, 244.25 111 M244.25 111 C170.28 110.41, 91.82 110.29, 27.75 111 M244.25 111 C178.84 111.96, 115.3 112.5, 27.75 111 M27.75 111 C7.58 109.04, -0.22 103.46, 0 83.25 M27.75 111 C9.32 109.82, 0.04 99.97, 0 83.25 M0 83.25 C-1.88 64.96, 1.14 45.67, 0 27.75 M0 83.25 C-0.07 65.69, -0.74 48.72, 0 27.75 M0 27.75 C-0.81 9.04, 8.66 0.14, 27.75 0 M0 27.75 C1.54 8.41, 7.73 -1.67, 27.75 0" stroke="#1e1e1e" stroke-width="1" fill="none"></path></g><g transform="translate(1958.1204213643045 205.63647390458868) rotate(0 33.25996398925781 12.5)"><text x="0" y="0" font-family="Virgil, Segoe UI Emoji" font-size="20px" fill="#1e1e1e" text-anchor="start" style="white-space: pre;" direction="ltr" dominant-baseline="text-before-edge">Crumbs</text></g><g stroke-linecap="round" transform="translate(1521.1204213643045 359.1364739045887) rotate(0 136 55.5)"><path d="M27.75 0 M27.75 0 C86.34 0.84, 147.56 0.31, 244.25 0 M27.75 0 C102.6 -2.08, 175.45 -2.24, 244.25 0 M244.25 0 C264.34 -1.34, 270.43 8.17, 272 27.75 M244.25 0 C262.2 -1.77, 270.56 10.76, 272 27.75 M272 27.75 C271.12 47.71, 270.03 72.25, 272 83.25 M272 27.75 C271.51 41.09, 271.7 54.81, 272 83.25 M272 83.25 C271.26 102.15, 262.13 110.8, 244.25 111 M272 83.25 C272.02 102.43, 263.69 111.58, 244.25 111 M244.25 111 C165.8 112.78, 87.15 113.41, 27.75 111 M244.25 111 C180.7 112.66, 117.48 112.94, 27.75 111 M27.75 111 C10.98 109.66, 0.87 100.58, 0 83.25 M27.75 111 C7.98 111.27, -1.64 100.51, 0 83.25 M0 83.25 C1.21 71.51, -0.62 57.86, 0 27.75 M0 83.25 C0.19 68.83, -0.46 55.83, 0 27.75 M0 27.75 C-0.31 10.89, 9.39 1.61, 27.75 0 M0 27.75 C-1.1 8.41, 8.87 1.83, 27.75 0" stroke="#1e1e1e" stroke-width="1" fill="none"></path></g><g transform="translate(1597.1204213643045 406.1364739045887) rotate(0 54.669944763183594 12.5)"><text x="0" y="0" font-family="Virgil, Segoe UI Emoji" font-size="20px" fill="#1e1e1e" text-anchor="start" style="white-space: pre;" direction="ltr" dominant-baseline="text-before-edge">Components</text></g><g stroke-linecap="round" transform="translate(1843.1204213643045 359.1364739045887) rotate(0 136 55.5)"><path d="M27.75 0 M27.75 0 C83.61 0.44, 140.69 -0.29, 244.25 0 M27.75 0 C89.01 -0.75, 148.35 -0.33, 244.25 0 M244.25 0 C263.36 -1.63, 272.03 9.76, 272 27.75 M244.25 0 C264.08 0.5, 272.92 9.44, 272 27.75 M272 27.75 C272.62 38.35, 273.21 50.11, 272 83.25 M272 27.75 C272.18 48.07, 271.9 68.87, 272 83.25 M272 83.25 C273.3 100.96, 261.77 109.6, 244.25 111 M272 83.25 C271.02 101.3, 264.38 111.98, 244.25 111 M244.25 111 C161.25 112.17, 77.46 112.68, 27.75 111 M244.25 111 C163.5 112.44, 82.83 112.62, 27.75 111 M27.75 111 C10.94 110.56, 0.53 102.73, 0 83.25 M27.75 111 C11.49 112.77, 1.45 103.87, 0 83.25 M0 83.25 C-0.15 67.47, -0.9 49.02, 0 27.75 M0 83.25 C-0.61 72.27, -0.61 59.87, 0 27.75 M0 27.75 C-0.64 9.86, 8.04 -0.77, 27.75 0 M0 27.75 C-0.75 8.49, 9.84 1.07, 27.75 0" stroke="#1e1e1e" stroke-width="1" fill="none"></path></g><g transform="translate(1956.1204213643045 407.1364739045887) rotate(0 21.749977111816406 12.5)"><text x="0" y="0" font-family="Virgil, Segoe UI Emoji" font-size="20px" fill="#1e1e1e" text-anchor="start" style="white-space: pre;" direction="ltr" dominant-baseline="text-before-edge">Core</text></g><g stroke-linecap="round" transform="translate(2160.1204213643045 360.1364739045887) rotate(0 136 55.5)"><path d="M27.75 0 M27.75 0 C82.01 -1.11, 139.9 -2.04, 244.25 0 M27.75 0 C101.95 1.16, 176.66 1.2, 244.25 0 M244.25 0 C262.21 1.93, 273.38 7.97, 272 27.75 M244.25 0 C263.75 1.92, 271.53 10.64, 272 27.75 M272 27.75 C271.61 50.58, 271.11 69.09, 272 83.25 M272 27.75 C271.42 45.52, 272.58 62.78, 272 83.25 M272 83.25 C273.24 102.08, 261.34 111.42, 244.25 111 M272 83.25 C271.87 102.6, 264.38 109.32, 244.25 111 M244.25 111 C158.06 108.62, 71.68 109.43, 27.75 111 M244.25 111 C164.36 111.43, 83.82 111.9, 27.75 111 M27.75 111 C10.58 111.61, 1.08 100.86, 0 83.25 M27.75 111 C7.91 108.71, -1.24 99.48, 0 83.25 M0 83.25 C-2.2 67.49, -1.63 48.43, 0 27.75 M0 83.25 C0.62 64.67, 0.39 48.01, 0 27.75 M0 27.75 C-0.99 9.18, 9.74 1.48, 27.75 0 M0 27.75 C1.05 9.95, 11.49 -2.23, 27.75 0" stroke="#1e1e1e" stroke-width="1" fill="none"></path></g><g transform="translate(2265.1204213643045 406.1364739045887) rotate(0 23.78997802734375 12.5)"><text x="0" y="0" font-family="Virgil, Segoe UI Emoji" font-size="20px" fill="#1e1e1e" text-anchor="start" style="white-space: pre;" direction="ltr" dominant-baseline="text-before-edge">Docs</text></g><g stroke-linecap="round"><g transform="translate(1983.1204213643045 283.6364739045887) rotate(0 -114.9733127795206 31.58958605818916)"><path d="M1.1 0.55 C-37.42 11.02, -191.7 52.8, -230.06 63.39 M0.22 -0.21 C-38.56 9.85, -192.78 51.05, -231.05 61.47" stroke="#1e1e1e" stroke-width="1" fill="none"></path></g><g transform="translate(1983.1204213643045 283.6364739045887) rotate(0 -114.9733127795206 31.58958605818916)"><path d="M-205.58 44.13 C-215.32 52.7, -223.74 56.31, -230.87 62.24 M-205.95 44.66 C-213.56 49.1, -220.06 54.67, -231.46 61.85" stroke="#1e1e1e" stroke-width="1" fill="none"></path></g><g transform="translate(1983.1204213643045 283.6364739045887) rotate(0 -114.9733127795206 31.58958605818916)"><path d="M-200.24 63.94 C-212.15 64.86, -222.65 60.76, -230.87 62.24 M-200.61 64.48 C-209.86 63.45, -217.84 63.52, -231.46 61.85" stroke="#1e1e1e" stroke-width="1" fill="none"></path></g></g><mask></mask><g stroke-linecap="round"><g transform="translate(2002.1204213643045 285.6364739045887) rotate(0 -0.2522399845075256 30.410864195981997)"><path d="M0.76 -0.42 C0.67 9.56, -0.21 50.79, -0.19 60.98 M-0.31 -1.69 C-0.6 9.01, -1.39 51.91, -1.24 62.51" stroke="#1e1e1e" stroke-width="1" fill="none"></path></g><g transform="translate(2002.1204213643045 285.6364739045887) rotate(0 -0.2522399845075256 30.410864195981997)"><path d="M-12.06 33.94 C-7.81 44.91, -4.88 52.79, -2.94 63.78 M-10.43 34.17 C-8.58 39.68, -6.94 47.1, -1.77 62.54" stroke="#1e1e1e" stroke-width="1" fill="none"></path></g><g transform="translate(2002.1204213643045 285.6364739045887) rotate(0 -0.2522399845075256 30.410864195981997)"><path d="M8.46 34.05 C5.98 45.11, 2.17 52.96, -2.94 63.78 M10.09 34.27 C7.43 39.95, 4.57 47.34, -1.77 62.54" stroke="#1e1e1e" stroke-width="1" fill="none"></path></g></g><mask></mask><g stroke-linecap="round"><g transform="translate(2026.1204213643045 287.6364739045887) rotate(0 103.94126306056506 30.239196538259275)"><path d="M0.88 -0.03 C35.49 10.04, 173.3 51.31, 208.01 61.57 M-0.12 -1.09 C34.3 9.13, 172.23 49.66, 207.06 59.75" stroke="#1e1e1e" stroke-width="1" fill="none"></path></g><g transform="translate(2026.1204213643045 287.6364739045887) rotate(0 103.94126306056506 30.239196538259275)"><path d="M177.07 61.7 C187.9 62.65, 197.65 58.26, 205.35 61.7 M177.89 61.85 C186.78 61.56, 195.56 61.12, 206.91 58.85" stroke="#1e1e1e" stroke-width="1" fill="none"></path></g><g transform="translate(2026.1204213643045 287.6364739045887) rotate(0 103.94126306056506 30.239196538259275)"><path d="M182.83 42.01 C191.95 49.47, 199.81 51.56, 205.35 61.7 M183.65 42.15 C190.87 47.9, 197.87 53.52, 206.91 58.85" stroke="#1e1e1e" stroke-width="1" fill="none"></path></g></g><mask></mask><g stroke-linecap="round" transform="translate(1621.3591222995965 548.2654405975181) rotate(0 31.622235335230926 30.934795436639007)"><path d="M30.09 0.04 C36.46 -0.77, 46.05 1.63, 51.35 5.58 C56.65 9.53, 60.36 17.05, 61.87 23.73 C63.39 30.42, 63.38 39.72, 60.45 45.69 C57.52 51.67, 50.59 57.22, 44.3 59.58 C38 61.94, 29.13 61.91, 22.69 59.87 C16.25 57.84, 9.53 52.98, 5.66 47.38 C1.8 41.78, -1.08 32.81, -0.51 26.29 C0.06 19.76, 3.81 12.53, 9.08 8.23 C14.35 3.93, 27.04 1.62, 31.12 0.5 C35.2 -0.62, 33.52 0.94, 33.55 1.51 M43.54 2.69 C49.96 4.99, 57.98 11.21, 61.03 17.1 C64.09 23, 63.82 31.9, 61.88 38.09 C59.94 44.27, 54.84 50.22, 49.38 54.21 C43.92 58.2, 35.58 62.35, 29.13 62.02 C22.67 61.69, 15.32 56.67, 10.66 52.21 C6 47.75, 2.06 41.81, 1.17 35.25 C0.29 28.7, 1.97 18.55, 5.34 12.89 C8.72 7.23, 15.06 2.98, 21.41 1.29 C27.76 -0.39, 39.64 2.75, 43.46 2.79 C47.28 2.84, 44.52 1.41, 44.31 1.58" stroke="#1e1e1e" stroke-width="1" fill="none"></path></g><g transform="translate(1646.561063034415 566.8260324062911) rotate(0 6.55999755859375 12.500000000000014)"><text x="6.55999755859375" y="0" font-family="Virgil, Segoe UI Emoji" font-size="20px" fill="#1e1e1e" text-anchor="middle" style="white-space: pre;" direction="ltr" dominant-baseline="text-before-edge">A</text></g><g stroke-linecap="round" transform="translate(1937.581475651906 553.0775198876619) rotate(0 31.622235335230926 30.93479543663902)"><path d="M30.39 -0.24 C37.02 -0.83, 47.26 1.73, 52.52 6.11 C57.77 10.49, 60.77 19.29, 61.91 26.04 C63.05 32.79, 62.64 41.12, 59.35 46.62 C56.06 52.12, 48.44 56.81, 42.15 59.05 C35.86 61.3, 28.04 62.3, 21.61 60.1 C15.18 57.9, 7.2 51.44, 3.59 45.88 C-0.01 40.32, -1.29 33.2, -0.02 26.75 C1.25 20.31, 5.49 11.64, 11.21 7.22 C16.94 2.79, 30.08 1.16, 34.32 0.22 C38.56 -0.71, 36.66 0.99, 36.64 1.59 M32.12 -1.1 C38.72 -1.76, 47.41 2.41, 52.49 6.55 C57.57 10.7, 61.47 17, 62.6 23.77 C63.72 30.54, 62.5 41.03, 59.22 47.2 C55.93 53.36, 49.2 58.37, 42.89 60.75 C36.58 63.14, 27.8 63.63, 21.36 61.49 C14.92 59.36, 7.89 53.78, 4.26 47.92 C0.63 42.06, -1.58 32.95, -0.43 26.32 C0.72 19.7, 6.07 12.59, 11.16 8.16 C16.25 3.73, 27 0.9, 30.12 -0.25 C33.23 -1.4, 29.81 0.75, 29.85 1.26" stroke="#1e1e1e" stroke-width="1" fill="none"></path></g><g transform="translate(1962.073417302252 571.6381116964349) rotate(0 7.269996643066406 12.5)"><text x="7.269996643066406" y="0" font-family="Virgil, Segoe UI Emoji" font-size="20px" fill="#1e1e1e" text-anchor="middle" style="white-space: pre;" direction="ltr" dominant-baseline="text-before-edge">B</text></g><g stroke-linecap="round" transform="translate(2282.6763047450786 537.9538421186384) rotate(0 31.622235335230926 30.934795436639007)"><path d="M33 0.49 C39.34 0.5, 48.67 3.35, 53.53 7.81 C58.4 12.27, 61.34 20.47, 62.2 27.25 C63.05 34.02, 62.33 42.82, 58.64 48.45 C54.96 54.08, 46.7 59.22, 40.08 61.03 C33.46 62.83, 24.97 61.93, 18.92 59.26 C12.87 56.58, 6.68 50.94, 3.79 44.97 C0.91 39, 0.08 29.88, 1.6 23.44 C3.13 17.01, 6.67 10.25, 12.96 6.35 C19.24 2.44, 34.18 0.68, 39.31 0.04 C44.43 -0.6, 43.94 2.04, 43.71 2.52 M32.25 0.1 C38.7 -0.39, 47.8 2.78, 53.06 6.84 C58.32 10.9, 62.76 17.87, 63.82 24.46 C64.89 31.05, 62.86 40.65, 59.45 46.39 C56.03 52.13, 49.76 56.82, 43.32 58.89 C36.89 60.95, 27.21 60.98, 20.83 58.8 C14.44 56.62, 8.46 51.17, 5.01 45.83 C1.57 40.49, -0.74 33.11, 0.14 26.77 C1.03 20.42, 5.36 12.22, 10.31 7.77 C15.27 3.32, 26.32 1.08, 29.88 0.04 C33.45 -1, 31.61 0.95, 31.69 1.55" stroke="#1e1e1e" stroke-width="1" fill="none"></path></g><g transform="translate(2307.998248226479 556.5144339274112) rotate(0 6.439994812011719 12.499999999999986)"><text x="6.439994812011719" y="0" font-family="Virgil, Segoe UI Emoji" font-size="20px" fill="#1e1e1e" text-anchor="middle" style="white-space: pre;" direction="ltr" dominant-baseline="text-before-edge">C</text></g><g stroke-linecap="round"><g transform="translate(1657.1059970263793 493.27024871015993) rotate(0 -3.357670373392466 22.42102383342555)"><path d="M-0.34 0.57 C-1.51 8.04, -6.6 37.63, -7.73 45.02 M1.69 -0.18 C0.47 6.96, -6.9 36.23, -8.4 43.44" stroke="#1e1e1e" stroke-width="1" fill="none"></path></g><g transform="translate(1657.1059970263793 493.27024871015993) rotate(0 -3.357670373392466 22.42102383342555)"><path d="M-10.16 22.09 C-8.71 28.43, -8.2 32.54, -7.68 43.86 M-11.39 20.45 C-9.64 28.39, -9.1 36.31, -9.37 42.91" stroke="#1e1e1e" stroke-width="1" fill="none"></path></g><g transform="translate(1657.1059970263793 493.27024871015993) rotate(0 -3.357670373392466 22.42102383342555)"><path d="M4.75 25.55 C2.61 31.02, -0.48 34.29, -7.68 43.86 M3.52 23.92 C0.08 30.5, -4.59 37.22, -9.37 42.91" stroke="#1e1e1e" stroke-width="1" fill="none"></path></g></g><mask></mask><g stroke-linecap="round" transform="translate(730.5501136456045 30.80582874370947) rotate(0 136 55.5)"><path d="M27.75 0 M27.75 0 C81.42 0.29, 132.9 -1.3, 244.25 0 M27.75 0 C75.05 -1.32, 122.22 -1.41, 244.25 0 M244.25 0 C261.02 0.9, 270.79 8.66, 272 27.75 M244.25 0 C260.7 -1.8, 272.67 8.8, 272 27.75 M272 27.75 C272 43.93, 272.37 64.39, 272 83.25 M272 27.75 C272.23 39.3, 272.73 49.96, 272 83.25 M272 83.25 C270.26 101.9, 264.55 111.34, 244.25 111 M272 83.25 C270.1 100.68, 264.65 110.81, 244.25 111 M244.25 111 C158.07 111.93, 72.85 109.26, 27.75 111 M244.25 111 C163.36 109.79, 80.76 109.93, 27.75 111 M27.75 111 C10.65 110.32, 1.58 100.78, 0 83.25 M27.75 111 C7.67 109.57, 0.66 103.19, 0 83.25 M0 83.25 C-0.72 62.53, 0.08 41.78, 0 27.75 M0 83.25 C-0.07 71.49, 0.69 59.38, 0 27.75 M0 27.75 C-0.12 8.9, 8.99 -1.64, 27.75 0 M0 27.75 C1.05 10.58, 7.38 -0.68, 27.75 0" stroke="#1e1e1e" stroke-width="1" fill="none"></path></g><g transform="translate(806.5501136456045 77.80582874370947) rotate(0 54.669944763183594 12.5)"><text x="0" y="0" font-family="Virgil, Segoe UI Emoji" font-size="20px" fill="#1e1e1e" text-anchor="start" style="white-space: pre;" direction="ltr" dominant-baseline="text-before-edge">Components</text></g><g stroke-linecap="round" transform="translate(45.74687472678295 221.04404886773716) rotate(0 124.42662164514792 57.05751158313416)"><path d="M28.53 0 M28.53 0 C85.33 -2.05, 137.71 1.34, 220.32 0 M28.53 0 C81.17 -0.94, 131.86 -1.01, 220.32 0 M220.32 0 C237.7 0.91, 250.01 7.89, 248.85 28.53 M220.32 0 C238.67 -0.78, 249.98 10.38, 248.85 28.53 M248.85 28.53 C248.61 40.92, 248.18 54.25, 248.85 85.59 M248.85 28.53 C248.5 40.91, 248.74 53.33, 248.85 85.59 M248.85 85.59 C250.49 104.58, 240.07 114.73, 220.32 114.12 M248.85 85.59 C247.75 106.52, 237.69 113.49, 220.32 114.12 M220.32 114.12 C178.36 113.82, 136.91 111.31, 28.53 114.12 M220.32 114.12 C152.53 112.65, 85.8 112.69, 28.53 114.12 M28.53 114.12 C8.2 113.46, 0.83 105.83, 0 85.59 M28.53 114.12 C9.7 114.18, -2.09 104.74, 0 85.59 M0 85.59 C-1.66 66.26, -0.21 44.31, 0 28.53 M0 85.59 C0.57 68.89, -0.05 50.51, 0 28.53 M0 28.53 C0.07 8.7, 9.42 -1.59, 28.53 0 M0 28.53 C0.29 11.35, 8.89 1.85, 28.53 0" stroke="#1e1e1e" stroke-width="1" fill="none"></path></g><g transform="translate(119.60354245347389 265.6015604508713) rotate(0 50.56995391845703 12.5)"><text x="50.56995391845703" y="0" font-family="Virgil, Segoe UI Emoji" font-size="20px" fill="#1e1e1e" text-anchor="middle" style="white-space: pre;" direction="ltr" dominant-baseline="text-before-edge">VeeButton</text></g><g stroke-linecap="round" transform="translate(351.657629600213 220.35660896914527) rotate(0 124.42662164514792 57.05751158313416)"><path d="M28.53 0 M28.53 0 C69.02 -0.59, 106.54 -0.68, 220.32 0 M28.53 0 C91.97 0.25, 153.11 0.68, 220.32 0 M220.32 0 C239.89 1.95, 250.62 9.79, 248.85 28.53 M220.32 0 C238.13 0.22, 247.13 10.93, 248.85 28.53 M248.85 28.53 C247.23 52.06, 248.45 74.62, 248.85 85.59 M248.85 28.53 C249.36 48.18, 249.27 69.96, 248.85 85.59 M248.85 85.59 C249.03 103.82, 239.26 112.29, 220.32 114.12 M248.85 85.59 C249.27 104.09, 241.32 112.58, 220.32 114.12 M220.32 114.12 C153.97 115.4, 87.31 115.45, 28.53 114.12 M220.32 114.12 C163.18 115.17, 105.02 113.23, 28.53 114.12 M28.53 114.12 C7.81 115.26, 1.89 105.28, 0 85.59 M28.53 114.12 C7.24 113.6, 1.56 102.54, 0 85.59 M0 85.59 C-0.77 64.27, 1.66 44.67, 0 28.53 M0 85.59 C-0.62 65.67, 1.18 45.55, 0 28.53 M0 28.53 C-0.51 8.01, 10.31 -0.92, 28.53 0 M0 28.53 C0.55 8.5, 9.78 1.81, 28.53 0" stroke="#1e1e1e" stroke-width="1" fill="none"></path></g><g transform="translate(441.5642851198726 264.9141205522794) rotate(0 34.51996612548828 12.5)"><text x="34.51996612548828" y="0" font-family="Virgil, Segoe UI Emoji" font-size="20px" fill="#1e1e1e" text-anchor="middle" style="white-space: pre;" direction="ltr" dominant-baseline="text-before-edge">VeeRow</text></g><g stroke-linecap="round" transform="translate(655.5060647778669 214.85708978040935) rotate(0 124.42662164514792 57.05751158313416)"><path d="M28.53 0 M28.53 0 C102.96 1.05, 179.08 0.32, 220.32 0 M28.53 0 C67.54 1.87, 107.36 2.24, 220.32 0 M220.32 0 C237.55 1.08, 248.47 9.91, 248.85 28.53 M220.32 0 C240.02 1, 248.51 9.82, 248.85 28.53 M248.85 28.53 C249.44 51.35, 249 68.69, 248.85 85.59 M248.85 28.53 C249.76 42.41, 248.72 56.62, 248.85 85.59 M248.85 85.59 C247.34 103.59, 239.19 115.86, 220.32 114.12 M248.85 85.59 C250.52 104.81, 238.18 114.56, 220.32 114.12 M220.32 114.12 C182.5 113.31, 140.4 112.92, 28.53 114.12 M220.32 114.12 C175.54 113.03, 130.42 112.85, 28.53 114.12 M28.53 114.12 C11.16 114.85, 0.69 106.14, 0 85.59 M28.53 114.12 C9.33 113.11, 1.51 105.28, 0 85.59 M0 85.59 C0.12 63.93, 1.55 43.34, 0 28.53 M0 85.59 C-0.82 64.95, -0.93 44.52, 0 28.53 M0 28.53 C1.88 10.86, 8.73 1.81, 28.53 0 M0 28.53 C-1.28 11.45, 8.3 1.85, 28.53 0" stroke="#1e1e1e" stroke-width="1" fill="none"></path></g><g transform="translate(755.6027074801437 259.4146013635435) rotate(0 24.329978942871094 12.5)"><text x="24.329978942871094" y="0" font-family="Virgil, Segoe UI Emoji" font-size="20px" fill="#1e1e1e" text-anchor="middle" style="white-space: pre;" direction="ltr" dominant-baseline="text-before-edge">Vee...</text></g><g stroke-linecap="round" transform="translate(10 174.29813576348266) rotate(0 477.0832896228326 103.80342468738863)"><path d="M32 0 M32 0 C273.13 -0.3, 512.26 -0.2, 922.17 0 M32 0 C370.72 1.57, 708.98 1.02, 922.17 0 M922.17 0 C941.51 -0.34, 955.78 10.88, 954.17 32 M922.17 0 C945.66 1.95, 951.95 10.94, 954.17 32 M954.17 32 C955.19 83.5, 954.12 135.39, 954.17 175.61 M954.17 32 C952.99 81.19, 954.37 129.69, 954.17 175.61 M954.17 175.61 C954.66 198.65, 943.5 208.32, 922.17 207.61 M954.17 175.61 C952.33 195.35, 941.31 209.75, 922.17 207.61 M922.17 207.61 C590.45 205.67, 259.47 206.5, 32 207.61 M922.17 207.61 C653.77 208.08, 386.02 208.14, 32 207.61 M32 207.61 C11.93 207.47, 1.58 196.67, 0 175.61 M32 207.61 C10.94 208.84, 0.15 198.4, 0 175.61 M0 175.61 C-3.09 130.7, -0.07 87.36, 0 32 M0 175.61 C0.22 141.18, 1.15 106.47, 0 32 M0 32 C-0.44 11.74, 9.16 1.24, 32 0 M0 32 C-0.51 11.76, 10.09 1.29, 32 0" stroke="#1e1e1e" stroke-width="1" fill="none"></path></g><g stroke-linecap="round" transform="translate(1023.3995104457871 219.1643609579113) rotate(0 136 55.5)"><path d="M27.75 0 M27.75 0 C100.93 1.12, 173.98 -0.48, 244.25 0 M27.75 0 C92.11 1.52, 154.2 0.2, 244.25 0 M244.25 0 C261.91 1.45, 270.86 11.2, 272 27.75 M244.25 0 C261.24 0.98, 270.94 9.38, 272 27.75 M272 27.75 C271.82 46.93, 269.93 69.09, 272 83.25 M272 27.75 C271.6 45.02, 271.72 62.23, 272 83.25 M272 83.25 C271.15 101.64, 261.59 111.46, 244.25 111 M272 83.25 C270.73 101.27, 263.86 112.81, 244.25 111 M244.25 111 C161.87 110.78, 78.88 109.03, 27.75 111 M244.25 111 C162.86 111.09, 80.76 111.33, 27.75 111 M27.75 111 C9.39 110.2, 1.48 102.15, 0 83.25 M27.75 111 C8.88 112.41, -2.09 103.78, 0 83.25 M0 83.25 C-0.01 63.37, 0.63 42.41, 0 27.75 M0 83.25 C-1.12 68.18, -1.24 52.7, 0 27.75 M0 27.75 C0.32 10.1, 11.16 1.35, 27.75 0 M0 27.75 C-0.09 7.72, 9.58 2.3, 27.75 0" stroke="#1e1e1e" stroke-width="1" fill="none"></path></g><g transform="translate(1114.5231882148105 266.1643609579113) rotate(0 47.289947509765625 12.5)"><text x="0" y="0" font-family="Virgil, Segoe UI Emoji" font-size="20px" fill="#1e1e1e" text-anchor="start" style="white-space: pre;" direction="ltr" dominant-baseline="text-before-edge">Storybook</text></g><g stroke-linecap="round"><g transform="translate(1002.6632135668159 153.67493880572334) rotate(0 28.772076657158337 28.648306231885265)"><path d="M0.45 -0.05 C10.15 9.54, 48.89 48.79, 58.31 58.42 M-0.77 -1.13 C8.81 8.04, 47.62 46.63, 57.66 56.66" stroke="#1e1e1e" stroke-width="1" fill="none"></path></g><g transform="translate(1002.6632135668159 153.67493880572334) rotate(0 28.772076657158337 28.648306231885265)"><path d="M30.35 44.98 C40.18 46.6, 47.55 50.17, 57.4 56.66 M30.29 44.98 C39.39 49.12, 47.79 52.92, 57.04 57.65" stroke="#1e1e1e" stroke-width="1" fill="none"></path></g><g transform="translate(1002.6632135668159 153.67493880572334) rotate(0 28.772076657158337 28.648306231885265)"><path d="M44.83 30.44 C50.23 36.66, 53.08 44.78, 57.4 56.66 M44.77 30.44 C49.39 39.1, 53.21 47.49, 57.04 57.65" stroke="#1e1e1e" stroke-width="1" fill="none"></path></g></g><mask></mask><g stroke-linecap="round"><g transform="translate(719.437975346921 134.42662164514792) rotate(0 -33.3858517543149 14.572107067951038)"><path d="M-0.6 0.42 C-11.87 5.03, -56.2 23.52, -67.2 28.31 M1.29 -0.41 C-10.17 4.3, -56.68 24.38, -68.06 29.55" stroke="#1e1e1e" stroke-width="1" fill="none"></path></g><g transform="translate(719.437975346921 134.42662164514792) rotate(0 -33.3858517543149 14.572107067951038)"><path d="M-45.71 9.07 C-54.58 16.93, -60.49 21.26, -68.14 28.06 M-47.12 7.96 C-52.93 14.32, -57.74 19.16, -68.56 30.15" stroke="#1e1e1e" stroke-width="1" fill="none"></path></g><g transform="translate(719.437975346921 134.42662164514792) rotate(0 -33.3858517543149 14.572107067951038)"><path d="M-37.43 27.84 C-49.21 29.3, -57.93 27.26, -68.14 28.06 M-38.84 26.74 C-46.73 28.17, -53.71 28.09, -68.56 30.15" stroke="#1e1e1e" stroke-width="1" fill="none"></path></g></g><mask></mask><g stroke-linecap="round"><g transform="translate(1958.2046726096648 489.1456093186084) rotate(0 3.6098677698774964 28.04408600217245)"><path d="M-0.61 -1.15 C0.57 8.58, 6.21 47.7, 7.83 57.23 M1.28 0.87 C2.19 10.36, 5.41 46.18, 6.65 55.57" stroke="#1e1e1e" stroke-width="1" fill="none"></path></g><g transform="translate(1958.2046726096648 489.1456093186084) rotate(0 3.6098677698774964 28.04408600217245)"><path d="M-7.84 29.3 C-0.12 40.83, 2.52 47.25, 4.89 54.74 M-4.94 30.08 C-1.7 35.37, 0.71 43.09, 7.17 55.29" stroke="#1e1e1e" stroke-width="1" fill="none"></path></g><g transform="translate(1958.2046726096648 489.1456093186084) rotate(0 3.6098677698774964 28.04408600217245)"><path d="M11.53 27.19 C12.14 39.4, 7.69 46.58, 4.89 54.74 M14.43 27.98 C12.97 33.58, 10.67 41.81, 7.17 55.29" stroke="#1e1e1e" stroke-width="1" fill="none"></path></g></g><mask></mask><g stroke-linecap="round"><g transform="translate(2292.300463325366 485.0209699270566) rotate(0 6.301236268743537 22.7109521064435)"><path d="M0.72 -1.1 C2.9 6.53, 11.05 38.62, 12.96 46.52 M-0.36 0.94 C1.72 8.2, 10.37 37.75, 12.32 45" stroke="#1e1e1e" stroke-width="1" fill="none"></path></g><g transform="translate(2292.300463325366 485.0209699270566) rotate(0 6.301236268743537 22.7109521064435)"><path d="M-3.26 26.9 C4.61 31.08, 8.28 37.38, 10.7 43.51 M-2.06 26.77 C0.84 29.32, 4.37 32.9, 12.22 45.86" stroke="#1e1e1e" stroke-width="1" fill="none"></path></g><g transform="translate(2292.300463325366 485.0209699270566) rotate(0 6.301236268743537 22.7109521064435)"><path d="M12.22 22.53 C15.61 28.07, 14.76 35.65, 10.7 43.51 M13.42 22.4 C13.15 25.78, 13.53 30.25, 12.22 45.86" stroke="#1e1e1e" stroke-width="1" fill="none"></path></g></g><mask></mask><g stroke-linecap="round"><g transform="translate(1017.7868913358393 61.5579923943983) rotate(0 50.73676486028853 -8.140384151213595)"><path d="M0.99 -0.15 C18.04 -2.46, 84.9 -11.95, 101.42 -14.39 M0.05 -1.27 C17.12 -3.88, 84.5 -13.52, 101.03 -16.13" stroke="#1e1e1e" stroke-width="1" fill="none"></path></g><g transform="translate(1017.7868913358393 61.5579923943983) rotate(0 50.73676486028853 -8.140384151213595)"><path d="M74.42 -0.05 C81.88 -5.68, 87.17 -8.33, 102.27 -17.66 M74.62 -1.51 C85.01 -6.3, 94.36 -11.82, 100.47 -15.84" stroke="#1e1e1e" stroke-width="1" fill="none"></path></g><g transform="translate(1017.7868913358393 61.5579923943983) rotate(0 50.73676486028853 -8.140384151213595)"><path d="M71.38 -20.35 C79.44 -21.43, 85.41 -19.52, 102.27 -17.66 M71.59 -21.8 C83.2 -19.09, 93.67 -17.14, 100.47 -15.84" stroke="#1e1e1e" stroke-width="1" fill="none"></path></g></g><mask></mask><g stroke-linecap="round" transform="translate(1125.0275155161876 9.999999999999943) rotate(0 31.622235335230926 30.934795436639007)"><path d="M34.99 0.03 C41.37 0.31, 50.61 4.84, 55.4 9.69 C60.19 14.53, 63.47 22.38, 63.72 29.11 C63.96 35.84, 61.11 44.61, 56.86 50.07 C52.61 55.54, 44.86 60.57, 38.22 61.91 C31.57 63.24, 22.85 61.25, 16.97 58.06 C11.1 54.88, 5.67 49.02, 2.98 42.8 C0.28 36.58, -1.27 26.94, 0.82 20.74 C2.9 14.55, 8.55 8.79, 15.48 5.64 C22.42 2.49, 36.58 1.87, 42.44 1.84 C48.3 1.82, 50.71 4.94, 50.67 5.47 M36.23 0.89 C42.56 1.03, 49.45 4.37, 53.72 9.04 C58 13.71, 61.14 22.3, 61.88 28.92 C62.62 35.55, 62.09 43.49, 58.18 48.82 C54.26 54.15, 45.32 59.38, 38.37 60.9 C31.42 62.42, 22.35 60.91, 16.46 57.93 C10.58 54.96, 5.64 49.12, 3.05 43.04 C0.45 36.97, -0.92 27.91, 0.89 21.48 C2.7 15.05, 8.2 8.07, 13.91 4.46 C19.62 0.85, 31.42 0.44, 35.16 -0.18 C38.9 -0.79, 36.26 0.1, 36.37 0.76" stroke="#1e1e1e" stroke-width="1" fill="none"></path></g><g transform="translate(1149.5194571665336 28.56059180877287) rotate(0 7.269996643066406 12.5)"><text x="7.269996643066406" y="0" font-family="Virgil, Segoe UI Emoji" font-size="20px" fill="#1e1e1e" text-anchor="middle" style="white-space: pre;" direction="ltr" dominant-baseline="text-before-edge">B</text></g><g stroke-linecap="round" transform="translate(740.0611723046804 37.49759594367919) rotate(0 25 24.5)"><path d="M19.18 1.56 C23.84 0.16, 30.65 0.36, 35.31 2.62 C39.97 4.88, 44.82 10.35, 47.12 15.15 C49.42 19.96, 50.58 26.55, 49.1 31.45 C47.63 36.34, 42.6 41.77, 38.27 44.52 C33.95 47.28, 28.46 48.54, 23.15 47.98 C17.84 47.42, 10.27 44.79, 6.4 41.14 C2.54 37.48, 0.27 31.23, -0.03 26.07 C-0.34 20.9, 0.42 14.46, 4.55 10.16 C8.67 5.86, 20.43 1.74, 24.73 0.26 C29.03 -1.22, 30.3 0.92, 30.33 1.3 M14.45 4.08 C18.79 1.28, 25.83 -0.75, 31.05 0.02 C36.27 0.79, 42.83 4.72, 45.76 8.69 C48.7 12.67, 48.77 18.61, 48.64 23.88 C48.51 29.14, 48.12 36.05, 44.98 40.28 C41.84 44.52, 35.51 48.24, 29.8 49.29 C24.1 50.34, 15.37 49.44, 10.73 46.56 C6.1 43.67, 3.28 37.05, 1.98 31.98 C0.69 26.92, 0.92 20.87, 2.96 16.18 C5.01 11.48, 12.7 6, 14.27 3.79 C15.83 1.59, 12.32 2.7, 12.35 2.93" stroke="#1e1e1e" stroke-width="1" fill="none"></path></g><g transform="translate(758.323505216423 49.673479804608746) rotate(0 6.55999755859375 12.5)"><text x="6.55999755859375" y="0" font-family="Virgil, Segoe UI Emoji" font-size="20px" fill="#1e1e1e" text-anchor="middle" style="white-space: pre;" direction="ltr" dominant-baseline="text-before-edge">A</text></g><g stroke-linecap="round" transform="translate(709.0161288345072 652.3505326245634) rotate(0 136 55.5)"><path d="M27.75 0 M27.75 0 C94.98 0.24, 163.21 0.91, 244.25 0 M27.75 0 C110.41 -1.99, 194.02 -1.69, 244.25 0 M244.25 0 C263.58 -0.96, 271.65 7.35, 272 27.75 M244.25 0 C262.73 0.07, 269.92 7.63, 272 27.75 M272 27.75 C270.23 39.14, 270.99 53.9, 272 83.25 M272 27.75 C271.55 43.61, 271.44 60.37, 272 83.25 M272 83.25 C273.05 103.41, 262.96 111.58, 244.25 111 M272 83.25 C271.34 101.87, 261.05 108.73, 244.25 111 M244.25 111 C189.55 113.05, 134.91 112.28, 27.75 111 M244.25 111 C157.77 111.35, 71.95 110.94, 27.75 111 M27.75 111 C9.38 112.84, -1.61 100.43, 0 83.25 M27.75 111 C9.54 108.75, 1.84 100.84, 0 83.25 M0 83.25 C-0.11 62.08, -0.79 38.14, 0 27.75 M0 83.25 C-0.83 65.02, -1.15 46.22, 0 27.75 M0 27.75 C1.62 9.79, 8.18 -0.73, 27.75 0 M0 27.75 C-0.89 11.28, 8.2 -2.08, 27.75 0" stroke="#1e1e1e" stroke-width="1" fill="none"></path></g><g transform="translate(825.1624747689112 695.3505326245632) rotate(0 21.749977111816406 12.5)"><text x="0" y="0" font-family="Virgil, Segoe UI Emoji" font-size="20px" fill="#1e1e1e" text-anchor="start" style="white-space: pre;" direction="ltr" dominant-baseline="text-before-edge">Core</text></g><g stroke-linecap="round" transform="translate(722.3703872806897 659.8488297719393) rotate(0 22.5 24.5)"><path d="M14.63 1.19 C18.61 -0.83, 25.16 -0.89, 29.68 1.03 C34.2 2.96, 39.15 8.15, 41.75 12.75 C44.36 17.34, 46.06 23.56, 45.33 28.6 C44.59 33.65, 41.22 39.62, 37.34 43.03 C33.45 46.43, 27 48.83, 22.02 49.02 C17.04 49.21, 11.02 47.55, 7.45 44.18 C3.89 40.81, 1.46 33.92, 0.61 28.81 C-0.24 23.7, -0.38 18.35, 2.34 13.54 C5.07 8.74, 13.96 2.21, 16.96 -0.02 C19.96 -2.24, 20.3 -0.47, 20.35 0.19 M15.85 0.07 C20.19 -1.52, 27.03 -0.74, 31.71 1.39 C36.38 3.52, 41.7 8.11, 43.9 12.85 C46.1 17.59, 46.08 24.69, 44.9 29.83 C43.72 34.96, 40.81 40.54, 36.81 43.65 C32.82 46.76, 26.05 48.81, 20.95 48.49 C15.84 48.17, 9.52 45.1, 6.18 41.71 C2.85 38.33, 1.59 33.46, 0.95 28.19 C0.32 22.91, -0.3 14.47, 2.36 10.08 C5.03 5.69, 14.43 3.14, 16.94 1.86 C19.44 0.58, 17.23 2.07, 17.39 2.4" stroke="#1e1e1e" stroke-width="1" fill="none"></path></g><g transform="translate(737.6904880609259 672.024713632869) rotate(0 7.269996643066406 12.5)"><text x="7.269996643066406" y="0" font-family="Virgil, Segoe UI Emoji" font-size="20px" fill="#1e1e1e" text-anchor="middle" style="white-space: pre;" direction="ltr" dominant-baseline="text-before-edge">B</text></g><g stroke-linecap="round" transform="translate(290.823608127767 836.1891136247018) rotate(0 136 55.5)"><path d="M27.75 0 M27.75 0 C77.32 -0.4, 130.01 0.8, 244.25 0 M27.75 0 C88.98 -1.73, 150.92 -1.13, 244.25 0 M244.25 0 C261.05 -1.67, 273.83 7.26, 272 27.75 M244.25 0 C263.58 -1.55, 269.79 6.96, 272 27.75 M272 27.75 C271.13 48.72, 271.81 71.68, 272 83.25 M272 27.75 C271.89 46.69, 272.55 64.15, 272 83.25 M272 83.25 C272.35 100.52, 264.56 110.12, 244.25 111 M272 83.25 C269.87 103.6, 261.12 110.21, 244.25 111 M244.25 111 C165.6 114.51, 85.42 113.2, 27.75 111 M244.25 111 C175.77 112.83, 108.13 112.11, 27.75 111 M27.75 111 C9.65 112.68, -0.21 101.26, 0 83.25 M27.75 111 C8.99 111.31, 1.26 102.88, 0 83.25 M0 83.25 C-0.56 61.41, -1.78 42.14, 0 27.75 M0 83.25 C0.48 62.16, 0.28 39.72, 0 27.75 M0 27.75 C-1.27 10.72, 9.2 -0.37, 27.75 0 M0 27.75 C0.95 9.25, 8.06 0.18, 27.75 0" stroke="#1e1e1e" stroke-width="1" fill="none"></path></g><g transform="translate(353.07481015592737 881.8142338275179) rotate(0 75.69992065429688 12.5)"><text x="0" y="0" font-family="Virgil, Segoe UI Emoji" font-size="20px" fill="#1e1e1e" text-anchor="start" style="white-space: pre;" direction="ltr" dominant-baseline="text-before-edge">Theme Manager</text></g><g stroke-linecap="round" transform="translate(472.3077413560487 1072.668438740342) rotate(0 136 55.5)"><path d="M27.75 0 M27.75 0 C111.61 -1.05, 195.83 -2.52, 244.25 0 M27.75 0 C76.17 -0.48, 124.37 -0.29, 244.25 0 M244.25 0 C261.4 1.27, 270.09 9.01, 272 27.75 M244.25 0 C260.85 -0.16, 270.98 8.31, 272 27.75 M272 27.75 C273.19 47.42, 271.19 70.67, 272 83.25 M272 27.75 C272.6 43.63, 272.57 60.24, 272 83.25 M272 83.25 C271.48 101.07, 260.88 110.8, 244.25 111 M272 83.25 C271.14 102.04, 261.02 113.16, 244.25 111 M244.25 111 C194.55 109.77, 141.23 110.2, 27.75 111 M244.25 111 C174.22 109.95, 105.61 109.98, 27.75 111 M27.75 111 C9.52 110.17, -1.4 101.01, 0 83.25 M27.75 111 C8.73 111.42, -0.76 102.56, 0 83.25 M0 83.25 C0.32 68.35, 1.61 52.88, 0 27.75 M0 83.25 C1.13 70.11, 1.35 56.35, 0 27.75 M0 27.75 C1.81 7.55, 11.21 1, 27.75 0 M0 27.75 C-2.03 8.8, 9.29 -1.48, 27.75 0" stroke="#1e1e1e" stroke-width="1" fill="none"></path></g><g transform="translate(545.5579817616807 1114.1689195516062) rotate(0 64.82992553710938 12.5)"><text x="0" y="0" font-family="Virgil, Segoe UI Emoji" font-size="20px" fill="#1e1e1e" text-anchor="start" style="white-space: pre;" direction="ltr" dominant-baseline="text-before-edge">Class Builder</text></g><g stroke-linecap="round" transform="translate(642.7928362068595 837.5639934218856) rotate(0 136 55.5)"><path d="M27.75 0 M27.75 0 C82.12 1.04, 137.15 0, 244.25 0 M27.75 0 C112.41 1.96, 197.74 1.65, 244.25 0 M244.25 0 C262.39 -0.63, 270.63 9.8, 272 27.75 M244.25 0 C264.08 0.15, 269.98 9.4, 272 27.75 M272 27.75 C273.65 47.23, 271.46 61.98, 272 83.25 M272 27.75 C271.65 49.3, 271.63 72.12, 272 83.25 M272 83.25 C270.42 103.31, 264.7 109.91, 244.25 111 M272 83.25 C272.02 102.25, 261.17 111.69, 244.25 111 M244.25 111 C185.37 109.65, 128.39 112.18, 27.75 111 M244.25 111 C183.84 110.52, 121.82 110.21, 27.75 111 M27.75 111 C8.62 109.84, 1.77 103.29, 0 83.25 M27.75 111 C11.01 108.9, 1.19 102.05, 0 83.25 M0 83.25 C0.93 71.26, -1.5 57.82, 0 27.75 M0 83.25 C0.14 70.94, -0.9 59.48, 0 27.75 M0 27.75 C1.7 7.5, 8.33 1.64, 27.75 0 M0 27.75 C-0.47 8.75, 8.53 1.45, 27.75 0" stroke="#1e1e1e" stroke-width="1" fill="none"></path></g><g transform="translate(735.2913937730669 883.1891136247016) rotate(0 38.65995788574219 12.5)"><text x="0" y="0" font-family="Virgil, Segoe UI Emoji" font-size="20px" fill="#1e1e1e" text-anchor="start" style="white-space: pre;" direction="ltr" dominant-baseline="text-before-edge">Builders</text></g><g stroke-linecap="round"><g transform="translate(696.300048375822 743.2020955288344) rotate(0 -97.14873200590074 39.664041580848846)"><path d="M1.12 0.03 C-31.38 13.32, -161.77 65.77, -194.26 79.12 M0.25 -1 C-32.52 12.49, -162.94 67.17, -195.42 80.33" stroke="#1e1e1e" stroke-width="1" fill="none"></path></g><g transform="translate(696.300048375822 743.2020955288344) rotate(0 -97.14873200590074 39.664041580848846)"><path d="M-173.23 59.41 C-182.47 67.68, -188.87 73.77, -197.3 80.73 M-173.26 60.27 C-180.72 66.62, -188.5 73.98, -195 79.88" stroke="#1e1e1e" stroke-width="1" fill="none"></path></g><g transform="translate(696.300048375822 743.2020955288344) rotate(0 -97.14873200590074 39.664041580848846)"><path d="M-165.39 78.38 C-177.39 79.82, -186.63 79.02, -197.3 80.73 M-165.43 79.24 C-175.85 78.78, -186.46 79.29, -195 79.88" stroke="#1e1e1e" stroke-width="1" fill="none"></path></g></g><mask></mask><g stroke-linecap="round"><g transform="translate(778.7928362068593 774.8243308640655) rotate(0 0.5736481270248959 23.350059380381225)"><path d="M-0.42 0.37 C-0.31 8.18, 0.99 39.62, 0.89 47.18 M1.56 -0.48 C1.58 6.93, 0.45 37.45, 0.41 45.28" stroke="#1e1e1e" stroke-width="1" fill="none"></path></g><g transform="translate(778.7928362068593 774.8243308640655) rotate(0 0.5736481270248959 23.350059380381225)"><path d="M-6.47 24.62 C-3.92 28.51, -3.95 38.37, 1.52 46.92 M-7.62 22.83 C-4.31 30.73, -1.13 38.43, 1.29 45.22" stroke="#1e1e1e" stroke-width="1" fill="none"></path></g><g transform="translate(778.7928362068593 774.8243308640655) rotate(0 0.5736481270248959 23.350059380381225)"><path d="M9.52 24.98 C6.97 28.7, 1.85 38.44, 1.52 46.92 M8.36 23.19 C6.2 30.87, 3.9 38.45, 1.29 45.22" stroke="#1e1e1e" stroke-width="1" fill="none"></path></g></g><mask></mask><g stroke-linecap="round"><g transform="translate(714.1734857392136 961.8079832810834) rotate(0 -36.579426487856466 50.83495854507146)"><path d="M0.89 -0.44 C-11.2 16.46, -60.59 85.03, -73.02 102.29 M-0.09 -1.72 C-12.32 15.24, -62.19 85.69, -74.05 103.39" stroke="#1e1e1e" stroke-width="1" fill="none"></path></g><g transform="translate(714.1734857392136 961.8079832810834) rotate(0 -36.579426487856466 50.83495854507146)"><path d="M-67.18 74.11 C-69.61 80.59, -70.21 89.95, -73.26 102.24 M-66.14 75.23 C-68.72 82.37, -69.9 89.58, -73.24 102.97" stroke="#1e1e1e" stroke-width="1" fill="none"></path></g><g transform="translate(714.1734857392136 961.8079832810834) rotate(0 -36.579426487856466 50.83495854507146)"><path d="M-50.31 85.79 C-57.25 89.33, -62.27 95.63, -73.26 102.24 M-49.27 86.91 C-56.58 90.85, -62.43 94.82, -73.24 102.97" stroke="#1e1e1e" stroke-width="1" fill="none"></path></g></g><mask></mask><g stroke-linecap="round" transform="translate(990.6374248944002 838.9388732190695) rotate(0 136 55.5)"><path d="M27.75 0 M27.75 0 C85.23 0.91, 139.19 2.76, 244.25 0 M27.75 0 C82.3 -0.51, 135.31 0.5, 244.25 0 M244.25 0 C263.82 1.9, 271.5 9.15, 272 27.75 M244.25 0 C263.37 -1.93, 273.5 7.05, 272 27.75 M272 27.75 C271.72 41.29, 271.53 54.27, 272 83.25 M272 27.75 C272.65 47.4, 270.81 66.21, 272 83.25 M272 83.25 C273.3 102.61, 264.17 109.23, 244.25 111 M272 83.25 C270.81 103.44, 261.02 110.58, 244.25 111 M244.25 111 C198.3 112.46, 152.97 111.98, 27.75 111 M244.25 111 C192.59 111.76, 141.37 112.63, 27.75 111 M27.75 111 C10.41 109.22, 0.52 100.01, 0 83.25 M27.75 111 C10.48 113.13, -0.62 101.2, 0 83.25 M0 83.25 C-1.07 66.21, -0.93 49.75, 0 27.75 M0 83.25 C-0.14 69.97, 0.79 57.31, 0 27.75 M0 27.75 C-1.51 9.94, 9 0.63, 27.75 0 M0 27.75 C2.14 10.53, 7.1 -0.53, 27.75 0" stroke="#1e1e1e" stroke-width="1" fill="none"></path></g><g transform="translate(1083.1359824606075 884.5639934218856) rotate(0 51.48994445800781 12.5)"><text x="0" y="0" font-family="Virgil, Segoe UI Emoji" font-size="20px" fill="#1e1e1e" text-anchor="start" style="white-space: pre;" direction="ltr" dominant-baseline="text-before-edge">Playground</text></g><g stroke-linecap="round"><g transform="translate(990.5243249731885 765.2001722837778) rotate(0 26.102170748535 30.48654557169283)"><path d="M-0.09 -0.17 C8.82 10.2, 44.71 52.1, 53.8 62.28 M-1.6 -1.31 C7.14 8.7, 43.66 49.87, 52.95 60.38" stroke="#1e1e1e" stroke-width="1" fill="none"></path></g><g transform="translate(990.5243249731885 765.2001722837778) rotate(0 26.102170748535 30.48654557169283)"><path d="M26.29 46.38 C35.96 52.22, 42.39 55.88, 53.98 60.84 M25.65 46.55 C32.86 49.07, 39.6 53.05, 53.46 59.58" stroke="#1e1e1e" stroke-width="1" fill="none"></path></g><g transform="translate(990.5243249731885 765.2001722837778) rotate(0 26.102170748535 30.48654557169283)"><path d="M41.66 32.78 C46.26 43.08, 47.64 51.22, 53.98 60.84 M41.02 32.94 C44.59 38.76, 47.73 45.94, 53.46 59.58" stroke="#1e1e1e" stroke-width="1" fill="none"></path></g></g><mask></mask></svg>